{"title":"Step. Up.3~Cam Rip){Ice- team)","uid":5765168,"size":784626502,"categoryP":"video","categoryS":"movies","magnet":"?xt=urn:btih:384a87c43fbf6ead7f21c126a439d6b32ae73409&amp;dn=Step.+Up.3%7ECam+Rip%29%7BIce-+team%29&amp;tr=udp%3A%2F%2Ftracker.openbittorrent.com%3A80&amp;tr=udp%3A%2F%2Fopen.demonii.com%3A1337&amp;tr=udp%3A%2F%2Ftracker.coppersurfer.tk%3A6969&amp;tr=udp%3A%2F%2Fexodus.desync.com%3A6969","seeders":0,"leechers":0,"uploader":"Ice-team","files":1,"time":1281830409,"description":"\n\nFormat                           : AVI\nFormat/Info                      : Audio Video Interleave\nFile size                        : 748 MiB\nDuration                         : 1h 38mn\nOverall bit rate                 : 1 060 Kbps\nWriting application              : VirtualDubMod 1.5.10.2 (build 2540/release)\nWriting library                  : VirtualDub build 32661/release\n\nVideo\nID                               : 0\nFormat                           : MPEG-4 Visual\nFormat profile                   : AdvancedSimple@L5\nFormat settings, BVOP            : Yes\nFormat settings, QPel            : No\nFormat settings, GMC             : No warppoints\nFormat settings, Matrix          : Default (H.263)\nCodec ID                         : XVID\nCodec ID/Hint                    : XviD\nDuration                         : 1h 38mn\nBit rate                         : 922 Kbps\nWidth                            : 640 pixels\nHeight                           : 304 pixels\nDisplay aspect ratio             : 2.2:1\nFrame rate                       : 25.000 fps\nResolution                       : 24 bits\nColorimetry                      : 4:2:0\nScan type                        : Progressive\nBits/(Pixel*Frame)               : 0.190\nStream size                      : 651 MiB (87%)\nWriting library                  : XviD 1.2.1 (UTC 2008-12-04)\n\nAudio\nID                               : 1\nFormat                           : MPEG Audio\nFormat version                   : Version 1\nFormat profile                   : Layer 3\nCodec ID                         : 55\nCodec ID/Hint                    : MP3\nDuration                         : 1h 38mn\nBit rate mode                    : Constant\nBit rate                         : 128 Kbps\nChannel(s)                       : 2 channels\nSampling rate                    : 48.0 KHz\nResolution                       : 16 bits\nStream size                      : 90.4 MiB (12%)\nAlignment                        : Split accross interleaves\nInterleave, duration             : 40 ms (1.00 video frame)\nInterleave, preload duration     : 500 ms\n\n","torrent":{"xt":"urn:btih:384a87c43fbf6ead7f21c126a439d6b32ae73409","amp;dn":"Step.+Up.3%7ECam+Rip%29%7BIce-+team%29","amp;tr":["udp%3A%2F%2Ftracker.openbittorrent.com%3A80","udp%3A%2F%2Fopen.demonii.com%3A1337","udp%3A%2F%2Ftracker.coppersurfer.tk%3A6969","udp%3A%2F%2Fexodus.desync.com%3A6969"],"infoHash":"384a87c43fbf6ead7f21c126a439d6b32ae73409","infoHashBuffer":{"type":"Buffer","data":[56,74,135,196,63,191,110,173,127,33,193,38,164,57,214,179,42,231,52,9]},"announce":[],"urlList":[]}}